<?xml version="1.0" standalone="no"?><!DOCTYPE svg PUBLIC "-//W3C//DTD SVG 1.1//EN" "http://www.w3.org/Graphics/SVG/1.1/DTD/svg11.dtd"><svg t="1566784808710" class="icon" viewBox="0 0 1024 1024" version="1.1" xmlns="http://www.w3.org/2000/svg" p-id="2887" xmlns:xlink="http://www.w3.org/1999/xlink" width="200" height="200"><defs><style type="text/css"></style></defs><path d="M864 960H160a32 32 0 0 1-32-32V96a32 32 0 0 1 32-32h704a32 32 0 0 1 32 32v832a32 32 0 0 1-32 32zM192 896h640V128H192v768z" fill="#67B9FF" p-id="2888"></path><path d="M672 192h64v128h-64zM544 192h64v128h-64zM416 192h64v128h-64zM288 192h64v128H288z" fill="#67B9FF" p-id="2889"></path><path d="M288 416v384h448V416H288z" fill="#E4F5FF" p-id="2890"></path><path d="M736 832H288a32 32 0 0 1-32-32V416a32 32 0 0 1 32-32h448a32 32 0 0 1 32 32v384a32 32 0 0 1-32 32z m-416-64h384V448H320v320z" fill="#67B9FF" p-id="2891"></path><path d="M479.008 503.008c4.672 0.672 7.008 4 7.008 10.016-0.672 6.016-3.328 8.992-8 8.992h-32.992c-4 21.344-8.992 39.328-15.008 54.016h32c10.656 1.344 16.32 6.336 16.992 15.04v119.008c0 8.672-4.992 12.992-15.008 12.992h-40c-10.688 0-16-5.376-16-16v-84c-1.344 2.016-1.696 2.624-0.992 2.016a15.52 15.52 0 0 1-4.992 6.016c-4 3.328-8 3.008-12-0.992-4.672-4.672-5.696-8.96-3.008-12.96 20-21.344 32-52.992 36-95.008h-22.016c-5.984-0.8-8.992-4.128-8.992-10.144 1.312-6.016 4.992-8.992 11.008-8.992h76z m-44.992 92c-4.672-0.672-7.008 2.016-7.008 8v94.016c-0.672 5.344 2.016 7.648 8 7.008h20c4 0 5.664-2.016 4.992-6.016v-95.008c0-6.016-2.336-8.672-7.008-8h-18.976z m185.984-92.992c5.312 0 8.32 3.008 8.992 8.992-0.672 6.656-3.68 10.016-8.992 10.016h-55.008v19.008h39.008c10.656 0.672 16.32 6.016 16.992 16v67.04c-0.672 10.624-6.016 16.32-16 16.96h-39.008c-2.688 21.344-7.68 37.344-15.04 48 15.328 10.016 39.04 16.992 71.04 20.992 6.016 1.344 8.96 4.96 8.96 11.008-0.672 6.016-4.352 8.992-11.008 8.992a191.36 191.36 0 0 1-80.96-25.024 130.56 130.56 0 0 1-40.992 23.008c-7.328 2.656-12.672 0.992-16-4.992-2.688-6.016-0.672-10.624 6.016-14.016 14.656-4.672 26.016-10.336 34.016-16.992-6.688-4.672-14.688-13.664-24-27.008-3.328-5.344-3.008-10.016 0.992-14.016 6.016-3.328 11.008-2.688 15.008 2.016 9.312 12 16.32 20 21.024 24 6.016-10.656 9.632-22.656 11.008-36H512c-14.016 0-20.992-6.656-20.992-20v-63.008c0-11.328 6.304-16.992 19.008-16.992h36v-19.008h-47.008c-5.344 0-8-3.328-8-10.016 0-6.016 2.656-8.992 8-8.992l120.992 0.032z m-111.008 80h36.992v-24.96h-30.016c-5.344-0.672-7.68 2.016-7.008 8v16.96h0.032z m0 33.984c-0.672 5.344 2.016 7.68 8 7.008h28.992v-24h-36.992v16.992z m56-33.984h38.016v-18.016c0.672-5.344-1.696-7.648-7.008-7.008h-31.008v25.024z m0 16.992v24h31.008c5.312 0 7.648-2.656 7.008-8v-16h-38.016z" fill="#67B9FF" p-id="2892"></path></svg>