<?xml version="1.0" standalone="no"?><!DOCTYPE svg PUBLIC "-//W3C//DTD SVG 1.1//EN" "http://www.w3.org/Graphics/SVG/1.1/DTD/svg11.dtd"><svg t="1566897248931" class="icon" viewBox="0 0 1024 1024" version="1.1" xmlns="http://www.w3.org/2000/svg" p-id="5801" xmlns:xlink="http://www.w3.org/1999/xlink" width="200" height="200"><defs><style type="text/css"></style></defs><path d="M512 1024C229.2 1024 0 794.8 0 512S229.2 0 512 0s512 229.2 512 512-229.2 512-512 512z m184.4-556.9L472.5 309.9c-13.2-9.3-28.4-9.5-41.8-0.6-13.4 8.9-21.1 24.3-21.1 42.3v314.5c0 18 7.7 33.4 21.1 42.3 13.4 8.9 28.6 8.7 41.8-0.6l223.9-157.3c12.9-9.1 20.2-24.1 20.2-41.7-0.1-17.6-7.3-32.6-20.2-41.7z" p-id="5802"></path></svg>