<?xml version="1.0" standalone="no"?><!DOCTYPE svg PUBLIC "-//W3C//DTD SVG 1.1//EN" "http://www.w3.org/Graphics/SVG/1.1/DTD/svg11.dtd"><svg t="1566273093092" class="icon" viewBox="0 0 1024 1024" version="1.1" xmlns="http://www.w3.org/2000/svg" p-id="4806" xmlns:xlink="http://www.w3.org/1999/xlink" width="200" height="200"><defs><style type="text/css"></style></defs><path d="M888.832 0H135.168c-32.256 0-58.88 26.112-58.88 58.88v906.24c0 32.256 26.112 58.88 58.88 58.88h753.152c32.256 0 58.88-26.112 58.88-58.88v-906.24c0.512-32.768-26.112-58.88-58.368-58.88z m-164.864 176.64c30.72 0 55.808 25.088 55.808 55.808s-25.088 55.808-55.808 55.808-55.808-25.088-55.808-55.808 24.576-55.808 55.808-55.808z m-211.968 0c30.72 0 55.808 25.088 55.808 55.808S542.72 288.256 512 288.256s-55.808-25.088-55.808-55.808S481.28 176.64 512 176.64z m-211.968 0c30.72 0 55.808 25.088 55.808 55.808s-25.088 55.808-55.808 55.808-55.808-25.088-55.808-55.808 25.088-55.808 55.808-55.808z m208.896 606.208H285.184c-24.576 0-44.032-19.968-44.032-44.032 0-24.576 19.968-44.032 44.032-44.032h223.744c24.576 0 44.032 19.968 44.032 44.032 0 24.064-19.456 44.032-44.032 44.032z m229.888-211.968H285.184c-24.576 0-44.032-19.968-44.032-44.032 0-24.576 19.968-44.032 44.032-44.032h453.12c24.576 0 44.032 19.968 44.032 44.032 0.512 24.064-19.456 44.032-43.52 44.032z" p-id="4807"></path></svg>